HIERARCHY
ROOT hip
{
	OFFSET 0.000000 0.000000 0.000000 
	CHANNELS 6 Xposition Yposition Zposition Xrotation Zrotation Yrotation
	JOINT abdomen
	{
		OFFSET 0.000000 3.402643 0.000000 
		CHANNELS 3 Xrotation Zrotation Yrotation
		JOINT chest
		{
			OFFSET 0.000000 8.438565 -0.680529 
			CHANNELS 3 Xrotation Zrotation Yrotation
			JOINT neck
			{
				OFFSET 0.000000 10.207942 -0.272212 
				CHANNELS 3 Xrotation Zrotation Yrotation
				JOINT head
				{
					OFFSET 0.000000 3.130431 0.000000 
					CHANNELS 3 Xrotation Zrotation Yrotation
					End Site
					{
						OFFSET 0.000000 3.130435 0.000000 
					}
				}
			}
			JOINT lCollar
			{
				OFFSET 3.470700 6.669187 -0.816635 
				CHANNELS 3 Yrotation Zrotation Xrotation
				JOINT lShldr
				{
					OFFSET 3.198488 0.000000 0.000000 
					CHANNELS 3 Zrotation Yrotation Xrotation
					JOINT lForeArm
					{
						OFFSET 10.139888 0.000000 0.000000 
						CHANNELS 3 Yrotation Zrotation Xrotation
						JOINT lHand
						{
							OFFSET 8.370511 0.000000 0.000000 
							CHANNELS 3 Zrotation Yrotation Xrotation
							End Site
							{
								OFFSET 4.083176 0.000000 0.000000 
							}
						}
					}
				}
			}
			JOINT rCollar
			{
				OFFSET -3.470700 6.669187 -0.816635 
				CHANNELS 3 Yrotation Zrotation Xrotation
				JOINT rShldr
				{
					OFFSET -3.198488 0.000000 0.000000 
					CHANNELS 3 Zrotation Yrotation Xrotation
					JOINT rForeArm
					{
						OFFSET -10.139888 0.000000 0.000000 
						CHANNELS 3 Yrotation Zrotation Xrotation
						JOINT rHand
						{
							OFFSET -8.370511 0.000000 0.000000 
							CHANNELS 3 Zrotation Yrotation Xrotation
							End Site
							{
								OFFSET -4.083176 0.000000 0.000000 
							}
						}
					}
				}
			}
		}
	}
	JOINT lThigh
	{
		OFFSET 5.308129 -1.633274 1.361059 
		CHANNELS 3 Xrotation Zrotation Yrotation
		JOINT lShin
		{
			OFFSET -2.041588 -20.007561 0.000000 
			CHANNELS 3 Xrotation Zrotation Yrotation
			JOINT lFoot
			{
				OFFSET 0.000000 -19.190928 -1.224953 
				CHANNELS 3 Xrotation Yrotation Zrotation
				End Site
				{
					OFFSET 0.000000 -2.449906 4.627600 
				}
			}
		}
	}
	JOINT rThigh
	{
		OFFSET -5.308129 -1.633274 1.361059 
		CHANNELS 3 Xrotation Zrotation Yrotation
		JOINT rShin
		{
			OFFSET 2.041588 -20.007561 0.000000 
			CHANNELS 3 Xrotation Zrotation Yrotation
			JOINT rFoot
			{
				OFFSET 0.000000 -19.190928 -1.224953 
				CHANNELS 3 Xrotation Yrotation Zrotation
				End Site
				{
					OFFSET 0.000000 -2.449906 4.627600 
				}
			}
		}
	}
}
MOTION
Frames: 9
Frame Time: 0.033333
0.041663 39.993874 0.041663 -0.010809 -0.017476 -26.523439 -0.038214 0.332030 0.146539 24.364529 6.739011 -18.186558 -8.547558 0.966793 -0.156228 19.799641 16.861872 47.851227 1.992188 -2.001953 0.000341 -7.320755 -49.185452 -30.834152 -46.276134 -0.600172 8.546262 -37.529163 -54.123917 -161.582092 -2.001953 1.992188 0.000000 -31.573816 136.115372 -90.380951 54.418850 0.540857 8.619150 13.216340 -54.075264 -39.777096 -27.576073 22.028532 15.224316 23.229174 -1.459897 -2.041651 8.016787 -6.673727 -10.469345 7.681763 -17.123859 -13.610672 22.950464 1.412300 1.960032 -22.206377 -16.149578 16.796755 
0.037189 39.848495 0.037189 -0.205187 -0.078787 -26.308624 -0.038214 0.332030 0.146539 24.604172 6.222972 -16.682621 -8.547558 0.966793 -0.156228 18.470541 16.606632 44.650887 1.992188 -2.001953 0.000341 -13.292833 -47.618832 -23.681278 -46.155842 -0.600416 8.544000 -39.307072 -50.621197 -154.716980 -2.001953 1.992188 0.000000 -38.259315 135.168213 -95.624168 57.186852 0.536984 8.644109 14.427188 -54.915287 -40.876457 -28.199001 22.152813 15.054857 24.177999 -1.426662 -2.123834 7.816133 -6.922103 -10.389270 7.048799 -17.293379 -13.428276 24.467255 1.363803 2.058559 -22.859856 -16.366335 16.755547 
0.032716 39.703125 0.032716 -0.385964 -0.149095 -26.093859 -0.038214 0.332030 0.146539 24.844332 5.693895 -15.183215 -8.547558 0.966793 -0.156228 17.168779 16.285776 41.466335 1.992188 -2.001953 0.000341 -18.735874 -45.591343 -17.054859 -46.035542 -0.600707 8.541615 -40.360153 -47.019081 -148.470306 -2.001953 1.992188 0.000000 134.884018 45.326550 78.946785 59.962154 0.522797 8.666128 15.683346 -55.734531 -42.024612 -28.824976 22.290937 14.853090 25.156822 -1.401598 -2.170166 7.583516 -7.141396 -10.335549 6.402181 -17.453903 -13.262400 25.983156 1.310741 2.164890 -23.488245 -16.565832 16.699392 
0.014822 39.392212 0.014822 -1.096200 -0.365457 -24.111866 -0.091071 0.898413 0.420023 25.619249 2.778991 -5.738915 -8.547558 0.966793 -0.156228 12.391912 13.860003 28.438898 1.992188 -2.001953 0.000341 -15.237507 -40.466579 -17.595072 -47.035942 -0.598243 8.544215 -40.020088 -31.417467 -126.863998 -2.001953 1.992188 0.000000 109.034439 41.365673 55.881405 71.481003 0.498871 8.784803 17.977385 -58.105442 -44.503563 -30.142851 22.026903 14.573400 26.624290 -1.339152 -2.272292 7.749183 -9.010588 -9.628010 5.769068 -17.242537 -13.237574 29.131966 1.187900 2.347428 -24.996838 -18.324171 16.279100 
-0.003070 39.081322 -0.003070 -1.806847 -0.551821 -22.129988 -0.138402 1.474501 0.693632 25.914011 -0.214405 3.662120 -8.547558 0.966793 -0.156228 8.335802 10.477283 15.798173 1.992188 -2.001953 0.000341 -12.023778 -35.327576 -17.725374 -48.028816 -0.592084 8.553255 -33.797546 -16.880699 -107.617645 -2.001953 1.992188 0.000000 88.877892 31.151136 38.688435 82.996185 0.498462 8.912425 20.641354 -60.419117 -47.353989 -31.460043 21.752396 14.282430 28.091606 -1.280604 -2.354604 7.935504 -10.859119 -8.919892 5.124488 -17.037556 -13.215389 32.288689 1.051173 2.521429 -26.560175 -20.046213 15.787500 
-0.029911 38.964970 -0.029911 -2.533354 -0.684973 -18.585409 -0.227312 2.069993 1.006614 25.549265 -3.699773 14.336685 -8.547558 0.966793 -0.156228 5.416275 4.794487 0.774498 1.992188 -2.001953 0.000341 -0.997946 -26.452303 -45.617493 -56.127556 -0.551874 8.629889 -24.802299 1.887438 -79.031303 -2.001953 1.992188 0.000000 76.894531 10.300493 22.331854 92.097366 0.516832 9.010221 18.678457 -55.501999 -44.110161 -31.606329 20.492622 14.546689 26.986258 -1.329369 -2.288931 9.396639 -14.023741 -7.581736 6.443049 -15.826568 -13.837646 32.795849 1.031669 2.570875 -27.282907 -23.117338 14.996879 
-0.056746 38.848629 -0.056746 -3.251768 -0.763921 -15.040560 -0.319931 2.665320 1.310357 24.538061 -7.055702 25.105114 -8.547558 0.966793 -0.156228 4.072585 -1.421961 -13.901087 1.992188 -2.001953 0.000341 3.962325 -14.349640 -69.555679 -64.220284 -0.522341 8.713108 -7.486108 13.609602 -46.899475 -2.001953 1.992188 0.000000 71.081657 -12.607260 10.424685 101.192055 0.551271 9.095438 17.375679 -50.541389 -41.492012 -31.741478 19.231609 14.794518 25.890903 -1.372585 -2.212136 10.934417 -17.137264 -6.108228 7.719966 -14.583815 -14.405347 33.303825 1.006831 2.599308 -28.063534 -26.156178 14.135730 
-0.012013 38.837463 -0.012013 -3.578448 -0.779985 -13.087229 -0.392239 3.045654 1.623473 23.828320 -8.986368 31.502775 -8.547558 0.966793 -0.156228 4.507124 -5.564050 -22.416445 1.992188 -2.001953 0.000341 -3.656268 -7.605146 -90.118507 -71.566063 -0.515135 8.786190 6.217542 17.941288 -20.765066 -2.001953 1.992188 0.000000 72.634079 -22.450863 0.560216 92.358932 0.517999 9.014209 18.512083 -38.899044 -37.283466 -31.636026 18.374315 15.002739 24.990517 -1.397451 -2.170381 11.945381 -18.817064 -5.191325 8.499829 -13.860375 -14.766521 33.157486 1.016529 2.584920 -28.275501 -27.822496 13.753977 
0.032729 38.826298 0.032729 -3.899860 -0.776104 -11.143661 -0.460378 3.425780 1.937140 22.888327 -10.833330 37.959938 -8.547558 0.966793 -0.156228 5.558957 -9.586767 -31.048115 1.992188 -2.001953 0.000341 -13.095033 -3.954728 -111.178810 -78.926056 -0.507305 8.853679 20.569469 15.932594 5.813837 -2.001953 1.992188 0.000000 76.286583 -31.849195 -10.512132 83.526970 0.500669 8.916437 20.453186 -27.343649 -33.342010 -31.520388 17.516521 15.190132 24.070107 -1.426728 -2.127950 13.006261 -20.440411 -4.271401 9.270226 -13.118478 -15.104465 33.011257 1.021937 2.569332 -28.486174 -29.484779 13.364028 
